<svg xmlns="http://www.w3.org/2000/svg" width="256" height="256"><defs><pattern patternUnits="userSpaceOnUse" width="124.249" height="124.249" patternTransform="translate(-9.091 793.763) scale(2.10569)" id="a"><path style="fill:none;stroke:none" d="M0 0h124.249v124.249H0z"/><path style="fill:none;stroke:none" d="M5.811 4.423h114.895v115.401H5.811z"/><path style="fill:#fff;fill-opacity:1;stroke:#000;stroke-width:3;stroke-linecap:butt;stroke-linejoin:miter;stroke-miterlimit:4;stroke-opacity:1;stroke-dasharray:none" d="M127.143 123.857c8.25.024 13.643 3.442 14.286 12.5l-.358 81.786c-.663 12.098-7.174 11.968-12.857 13.571l-51.964.179c-9.844-1.036-14.749-4.883-16.429-14.643l.893-79.821c.401-5.982 2.243-10.784 7.857-12.5l58.572-1.072z" transform="translate(-22.223 -113.568)"/><path d="m129.92 124.11-17.385 80.143c-2.936 11.593-9.448 10.453-15.635 11.046l-37.03-.207.844-77.663c.401-5.982 2.243-10.784 7.857-12.5l61.35-.82z" style="opacity:.26180258;fill:#000;fill-opacity:1;stroke:none" transform="translate(-22.223 -113.568)"/><path style="fill:none;stroke:#646464;stroke-width:2.5;stroke-linecap:butt;stroke-linejoin:miter;stroke-miterlimit:4;stroke-opacity:1;stroke-dasharray:none" d="m69.7 1015.997 60.357-.253M69.322 1006.021l60.356-.252M69.511 995.857l60.357-.253M69.132 985.881l60.357-.252M68.343 975.37l60.357-.253M67.964 965.394l60.357-.252M68.154 955.23l60.356-.253M67.775 945.254l60.357-.252" transform="translate(-22.223 -909.93)"/><path style="fill:#5fd5d4;fill-opacity:1;stroke:#000;stroke-width:3;stroke-linecap:butt;stroke-linejoin:miter;stroke-miterlimit:4;stroke-opacity:1;stroke-dasharray:none" d="M37.143 990.576c-10.843-2.959-7.691-8.897-5.061-14.982l24.53-47.64c1.536-4.243 7.428-7.25 11.245-6.663l60.357-.357c3.71.86 8.788.808 4.286 7.142l-27.457 53.694c-1.024 5.81-7.643 8.762-11.497 8.911l-56.403-.105z" transform="translate(-22.223 -909.93)"/><path style="fill:none;stroke:#171718;stroke-width:4;stroke-linecap:butt;stroke-linejoin:miter;stroke-miterlimit:4;stroke-opacity:1;stroke-dasharray:none" d="m65.536 937.846 45.714-.253M58.929 946.417l45.714-.252" transform="translate(-22.223 -909.93)"/><path transform="matrix(2.04511 0 0 1.47368 -149.542 -174.508)" d="M122.986 128.784c0 .662-.396 1.2-.884 1.2s-.884-.538-.884-1.2c0-.663.396-1.2.884-1.2s.884.537.884 1.2z" style="fill:#26272a;fill-opacity:1;fill-rule:nonzero;stroke:none"/><path transform="translate(-22.223 -113.568)" d="M122.321 128.59c-7.036-7.322 3.267-13.748 4.286-6.25" style="fill:none;stroke:#838382;stroke-width:2;stroke-linecap:butt;stroke-linejoin:miter;stroke-miterlimit:4;stroke-opacity:1;stroke-dasharray:none"/><path transform="matrix(2.04511 0 0 1.47368 -160.01 -174.045)" d="M122.986 128.784c0 .662-.396 1.2-.884 1.2s-.884-.538-.884-1.2c0-.663.396-1.2.884-1.2s.884.537.884 1.2z" style="fill:#26272a;fill-opacity:1;fill-rule:nonzero;stroke:none"/><path transform="translate(-32.692 -113.105)" d="M122.321 128.59c-7.036-7.322 3.267-13.748 4.286-6.25" style="fill:none;stroke:#838382;stroke-width:2;stroke-linecap:butt;stroke-linejoin:miter;stroke-miterlimit:4;stroke-opacity:1;stroke-dasharray:none"/><path transform="matrix(2.04511 0 0 1.47368 -170.746 -174.049)" d="M122.986 128.784c0 .662-.396 1.2-.884 1.2s-.884-.538-.884-1.2c0-.663.396-1.2.884-1.2s.884.537.884 1.2z" style="fill:#26272a;fill-opacity:1;fill-rule:nonzero;stroke:none"/><path transform="translate(-43.428 -113.109)" d="M122.321 128.59c-7.036-7.322 3.267-13.748 4.286-6.25" style="fill:none;stroke:#838382;stroke-width:2;stroke-linecap:butt;stroke-linejoin:miter;stroke-miterlimit:4;stroke-opacity:1;stroke-dasharray:none"/><g><path transform="matrix(2.04511 0 0 1.47368 -181.652 -173.796)" d="M122.986 128.784c0 .662-.396 1.2-.884 1.2s-.884-.538-.884-1.2c0-.663.396-1.2.884-1.2s.884.537.884 1.2z" style="fill:#26272a;fill-opacity:1;fill-rule:nonzero;stroke:none"/><path transform="translate(-54.334 -112.856)" d="M122.321 128.59c-7.036-7.322 3.267-13.748 4.286-6.25" style="fill:none;stroke:#838382;stroke-width:2;stroke-linecap:butt;stroke-linejoin:miter;stroke-miterlimit:4;stroke-opacity:1;stroke-dasharray:none"/></g><g><path transform="matrix(2.04511 0 0 1.47368 -192.222 -173.587)" d="M122.986 128.784c0 .662-.396 1.2-.884 1.2s-.884-.538-.884-1.2c0-.663.396-1.2.884-1.2s.884.537.884 1.2z" style="fill:#26272a;fill-opacity:1;fill-rule:nonzero;stroke:none"/><path transform="translate(-64.904 -112.647)" d="M122.321 128.59c-7.036-7.322 3.267-13.748 4.286-6.25" style="fill:none;stroke:#838382;stroke-width:2;stroke-linecap:butt;stroke-linejoin:miter;stroke-miterlimit:4;stroke-opacity:1;stroke-dasharray:none"/></g><g><path transform="matrix(2.04511 0 0 1.47368 -203.636 -173.46)" d="M122.986 128.784c0 .662-.396 1.2-.884 1.2s-.884-.538-.884-1.2c0-.663.396-1.2.884-1.2s.884.537.884 1.2z" style="fill:#26272a;fill-opacity:1;fill-rule:nonzero;stroke:none"/><path transform="translate(-76.318 -112.521)" d="M122.321 128.59c-7.036-7.322 3.267-13.748 4.286-6.25" style="fill:none;stroke:#838382;stroke-width:2;stroke-linecap:butt;stroke-linejoin:miter;stroke-miterlimit:4;stroke-opacity:1;stroke-dasharray:none"/></g></pattern></defs><path style="fill:url(#a);stroke:none" d="M-9.091 793.763h261.63v261.63H-9.091z" transform="translate(0 -796.362)"/></svg>